# xmcd CD database file
#
# Track frame offsets:
#	150
#	32370
#	47907
#	59730
#	96137
#	134212
#	149641
#
# Disc length: 2511 seconds
#
# Revision: 0
# Processed by: cddbd v1.5.2PL0 Copyright (c) Steve Scherf et al.
# Submitted via: CDex 1.51
#
DISCID=6e09cd07
DTITLE=Michal Urbaniak - Hertitage
DYEAR=1900
DGENRE=Jazz
TTITLE0=Heritage
TTITLE1=Prayer
TTITLE2=Vio-lines
TTITLE3=Stick It In
TTITLE4=Cucu's Nest
TTITLE5=Gaby's Mod feat Urszula Dudziak solo
TTITLE6=Storks
EXTD=
EXTT0=
EXTT1=
EXTT2=
EXTT3=
EXTT4=
EXTT5=
EXTT6=
PLAYORDER=
